<mxfile host="app.diagrams.net" modified="2024-01-31T15:08:55.492Z" agent="Mozilla/5.0 (Windows NT 10.0; Win64; x64) AppleWebKit/537.36 (KHTML, like Gecko) Chrome/121.0.0.0 Safari/537.36" etag="ICru7vAKMo4Ihlv-_MHq" version="23.0.2" type="device">
  <diagram name="Seite-1" id="pIhout4KRZKSyXLUW36P">
    <mxGraphModel dx="1434" dy="780" grid="1" gridSize="10" guides="1" tooltips="1" connect="1" arrows="1" fold="1" page="1" pageScale="1" pageWidth="827" pageHeight="1169" math="0" shadow="0">
      <root>
        <mxCell id="0" />
        <mxCell id="1" parent="0" />
        <mxCell id="YHpPOl9XWNQnbaERpKAb-35" value="Raspberry Pi 4 Model B" style="rounded=1;whiteSpace=wrap;html=1;fillColor=#BAD0FC;strokeColor=#5071BF;fontSize=15;" vertex="1" parent="1">
          <mxGeometry x="40" y="150" width="320" height="60" as="geometry" />
        </mxCell>
        <mxCell id="YHpPOl9XWNQnbaERpKAb-36" value="Docker" style="rounded=1;whiteSpace=wrap;html=1;fillColor=#dae8fc;strokeColor=#6c8ebf;fontSize=15;" vertex="1" parent="1">
          <mxGeometry x="40" y="110" width="320" height="30" as="geometry" />
        </mxCell>
        <mxCell id="YHpPOl9XWNQnbaERpKAb-37" value="MQTT-Server" style="rounded=1;whiteSpace=wrap;html=1;fillColor=#d5e8d4;strokeColor=#82b366;fontSize=15;" vertex="1" parent="1">
          <mxGeometry x="40" y="40" width="100" height="60" as="geometry" />
        </mxCell>
        <mxCell id="YHpPOl9XWNQnbaERpKAb-40" value="Frontend" style="rounded=1;whiteSpace=wrap;html=1;fillColor=#ffe6cc;strokeColor=#d79b00;fontSize=15;" vertex="1" parent="1">
          <mxGeometry x="150" y="40" width="100" height="60" as="geometry" />
        </mxCell>
        <mxCell id="YHpPOl9XWNQnbaERpKAb-41" value="Backend" style="rounded=1;whiteSpace=wrap;html=1;fillColor=#f8cecc;strokeColor=#b85450;fontSize=15;" vertex="1" parent="1">
          <mxGeometry x="260" y="40" width="100" height="60" as="geometry" />
        </mxCell>
        <mxCell id="YHpPOl9XWNQnbaERpKAb-45" value="&lt;h1&gt;Server&lt;/h1&gt;" style="shape=umlFrame;whiteSpace=wrap;html=1;pointerEvents=0;width=100;height=40;" vertex="1" parent="1">
          <mxGeometry x="120" y="510" width="370" height="240" as="geometry" />
        </mxCell>
        <mxCell id="YHpPOl9XWNQnbaERpKAb-51" style="rounded=0;orthogonalLoop=1;jettySize=auto;html=1;strokeWidth=2;" edge="1" parent="1" source="YHpPOl9XWNQnbaERpKAb-48" target="YHpPOl9XWNQnbaERpKAb-47">
          <mxGeometry relative="1" as="geometry" />
        </mxCell>
        <mxCell id="YHpPOl9XWNQnbaERpKAb-47" value="MQTT" style="rounded=1;whiteSpace=wrap;html=1;fillColor=#d5e8d4;strokeColor=#82b366;fontSize=15;" vertex="1" parent="1">
          <mxGeometry x="360" y="580" width="100" height="60" as="geometry" />
        </mxCell>
        <mxCell id="YHpPOl9XWNQnbaERpKAb-48" value="Frontend" style="rounded=1;whiteSpace=wrap;html=1;fillColor=#ffe6cc;strokeColor=#d79b00;fontSize=15;" vertex="1" parent="1">
          <mxGeometry x="170" y="560" width="100" height="60" as="geometry" />
        </mxCell>
        <mxCell id="YHpPOl9XWNQnbaERpKAb-50" style="rounded=0;orthogonalLoop=1;jettySize=auto;html=1;strokeWidth=2;startArrow=classic;startFill=1;" edge="1" parent="1" source="YHpPOl9XWNQnbaERpKAb-49" target="YHpPOl9XWNQnbaERpKAb-48">
          <mxGeometry relative="1" as="geometry" />
        </mxCell>
        <mxCell id="YHpPOl9XWNQnbaERpKAb-49" value="Backend" style="rounded=1;whiteSpace=wrap;html=1;fillColor=#f8cecc;strokeColor=#b85450;fontSize=15;" vertex="1" parent="1">
          <mxGeometry x="190" y="660" width="100" height="60" as="geometry" />
        </mxCell>
        <mxCell id="YHpPOl9XWNQnbaERpKAb-52" value="&lt;h1&gt;Watch&lt;/h1&gt;" style="shape=umlFrame;whiteSpace=wrap;html=1;pointerEvents=0;width=100;height=40;" vertex="1" parent="1">
          <mxGeometry x="50" y="780" width="220" height="145" as="geometry" />
        </mxCell>
        <mxCell id="YHpPOl9XWNQnbaERpKAb-55" style="rounded=0;orthogonalLoop=1;jettySize=auto;html=1;exitX=0.5;exitY=0;exitDx=0;exitDy=0;strokeWidth=2;startArrow=classic;startFill=1;" edge="1" parent="1" source="YHpPOl9XWNQnbaERpKAb-54" target="YHpPOl9XWNQnbaERpKAb-49">
          <mxGeometry relative="1" as="geometry" />
        </mxCell>
        <mxCell id="YHpPOl9XWNQnbaERpKAb-56" style="rounded=0;orthogonalLoop=1;jettySize=auto;html=1;exitX=0.75;exitY=0;exitDx=0;exitDy=0;strokeWidth=2;" edge="1" parent="1" source="YHpPOl9XWNQnbaERpKAb-54" target="YHpPOl9XWNQnbaERpKAb-47">
          <mxGeometry relative="1" as="geometry" />
        </mxCell>
        <mxCell id="YHpPOl9XWNQnbaERpKAb-54" value="Garmin-App" style="rounded=1;whiteSpace=wrap;html=1;fillColor=#e1d5e7;strokeColor=#9673a6;fontSize=15;" vertex="1" parent="1">
          <mxGeometry x="110" y="835" width="100" height="60" as="geometry" />
        </mxCell>
        <mxCell id="YHpPOl9XWNQnbaERpKAb-57" value="&lt;h1&gt;Camera&lt;/h1&gt;" style="shape=umlFrame;whiteSpace=wrap;html=1;pointerEvents=0;width=120;height=43;" vertex="1" parent="1">
          <mxGeometry x="350" y="330" width="220" height="145" as="geometry" />
        </mxCell>
        <mxCell id="YHpPOl9XWNQnbaERpKAb-59" style="rounded=0;orthogonalLoop=1;jettySize=auto;html=1;strokeWidth=2;" edge="1" parent="1" source="YHpPOl9XWNQnbaERpKAb-58" target="YHpPOl9XWNQnbaERpKAb-49">
          <mxGeometry relative="1" as="geometry" />
        </mxCell>
        <mxCell id="YHpPOl9XWNQnbaERpKAb-60" style="rounded=0;orthogonalLoop=1;jettySize=auto;html=1;strokeWidth=2;startArrow=classic;startFill=1;endArrow=none;endFill=0;" edge="1" parent="1" source="YHpPOl9XWNQnbaERpKAb-58" target="YHpPOl9XWNQnbaERpKAb-47">
          <mxGeometry relative="1" as="geometry" />
        </mxCell>
        <mxCell id="YHpPOl9XWNQnbaERpKAb-58" value="Camera-Script" style="rounded=1;whiteSpace=wrap;html=1;fillColor=#dae8fc;strokeColor=#6c8ebf;fontSize=15;" vertex="1" parent="1">
          <mxGeometry x="400" y="385" width="130" height="60" as="geometry" />
        </mxCell>
        <mxCell id="YHpPOl9XWNQnbaERpKAb-61" value="&lt;h1&gt;Trigger&lt;/h1&gt;" style="shape=umlFrame;whiteSpace=wrap;html=1;pointerEvents=0;width=100;height=40;" vertex="1" parent="1">
          <mxGeometry x="560" y="545" width="190" height="145" as="geometry" />
        </mxCell>
        <mxCell id="YHpPOl9XWNQnbaERpKAb-63" value="" style="rounded=0;orthogonalLoop=1;jettySize=auto;html=1;strokeWidth=2;" edge="1" parent="1" source="YHpPOl9XWNQnbaERpKAb-62" target="YHpPOl9XWNQnbaERpKAb-47">
          <mxGeometry relative="1" as="geometry" />
        </mxCell>
        <mxCell id="YHpPOl9XWNQnbaERpKAb-62" value="Sensor-Script" style="rounded=1;whiteSpace=wrap;html=1;fillColor=#fff2cc;strokeColor=#d6b656;fontSize=15;" vertex="1" parent="1">
          <mxGeometry x="600" y="605" width="120" height="60" as="geometry" />
        </mxCell>
      </root>
    </mxGraphModel>
  </diagram>
</mxfile>
